<?xml version="1.0" encoding="UTF-8" standalone="no"?>
<!-- Created by Flowgorithm 2.15.2 (http://flowgorithm.org) -->

<svg xmlns:svg="http://www.w3.org/2000/svg" xmlns="http://www.w3.org/2000/svg" version="1.1" width="1350" height="1850">
	<g>
		<polyline fill="none" stroke="#000000" stroke-width="6" stroke-dasharray="none" points="450,125 450,275"/>
		<polyline fill="none" stroke="#000000" stroke-width="6" stroke-dasharray="none" points="450,1650 450,1711"/>
		<polygon fill="#000000" stroke="none" points="450,1725 463,1700 436,1700"/>
		<g>
			<path fill="#FFFFFF" stroke="#000000" stroke-width="3" stroke-dasharray="none" d="M 350,25 A 50,50 0 0,0 350,125 L 550,125 A 50,50 0 0,0 550,25 Z"/>
			<text x="450" y="40" fill="#000000" font-family="Arial" font-size="32pt" text-anchor="middle" direction="ltr">
				<tspan x="450" dy="50" unicode-bidi="embed">Main</tspan>
			</text>
		</g>
		<g>
			<path fill="#FFFFFF" stroke="#000000" stroke-width="3" stroke-dasharray="none" d="M 350,1725 A 50,50 0 0,0 350,1825 L 550,1825 A 50,50 0 0,0 550,1725 Z"/>
			<text x="450" y="1740" fill="#000000" font-family="Arial" font-size="32pt" text-anchor="middle" direction="ltr">
				<tspan x="450" dy="50" unicode-bidi="embed">End</tspan>
			</text>
		</g>
		<g>
			<polyline fill="none" stroke="#000000" stroke-width="6" stroke-dasharray="none" points="450,275 450,411"/>
			<polygon fill="#000000" stroke="none" points="450,425 463,400 436,400"/>
			<polyline fill="none" stroke="#000000" stroke-width="6" stroke-dasharray="none" points="450,550 450,611"/>
			<polygon fill="#000000" stroke="none" points="450,625 463,600 436,600"/>
			<polyline fill="none" stroke="#000000" stroke-width="6" stroke-dasharray="none" points="450,750 450,811"/>
			<polygon fill="#000000" stroke="none" points="450,825 463,800 436,800"/>
			<polyline fill="none" stroke="#000000" stroke-width="6" stroke-dasharray="none" points="450,975 450,1036"/>
			<polygon fill="#000000" stroke="none" points="450,1050 463,1025 436,1025"/>
			<polyline fill="none" stroke="#000000" stroke-width="6" stroke-dasharray="none" points="450,1150 450,1211"/>
			<polygon fill="#000000" stroke="none" points="450,1225 463,1200 436,1200"/>
			<polyline fill="none" stroke="#000000" stroke-width="6" stroke-dasharray="none" points="450,1375 450,1436"/>
			<polygon fill="#000000" stroke="none" points="450,1450 463,1425 436,1425"/>
			<g>
				<polyline fill="none" stroke="#000000" stroke-width="6" stroke-dasharray="6,12" points="450,275 575,275"/>
				<g>
					<path fill="#FFFFFF" stroke="#000000" stroke-width="3" stroke-dasharray="6,6" d="M 575,200 L 575,350 L 1325,350 L 1325,200 Z"/>
					<text x="950" y="215" fill="#000000" font-family="Arial" font-size="32pt" text-anchor="middle" direction="ltr">
						<tspan x="950" dy="50" unicode-bidi="embed">This program converts an input</tspan>
						<tspan x="950" dy="50" unicode-bidi="embed"> Fahrenheit temperature to Celsius.</tspan>
					</text>
				</g>
			</g>
			<g>
				<path fill="#FFFFFF" stroke="#000000" stroke-width="3" stroke-dasharray="none" d="M 250,425 L 250,550 L 650,550 L 650,425 Z"/>
				<polyline fill="none" stroke="#000000" stroke-width="3" stroke-dasharray="none" points="250,450 650,450"/>
				<polyline fill="none" stroke="#000000" stroke-width="3" stroke-dasharray="none" points="275,425 275,550"/>
				<text x="462" y="465" fill="#000000" font-family="Arial" font-size="32pt" text-anchor="middle" direction="ltr">
					<tspan x="462" dy="50" unicode-bidi="embed">Real fahrenheit</tspan>
				</text>
			</g>
			<g>
				<path fill="#FFFFFF" stroke="#000000" stroke-width="3" stroke-dasharray="none" d="M 275,625 L 275,750 L 625,750 L 625,625 Z"/>
				<polyline fill="none" stroke="#000000" stroke-width="3" stroke-dasharray="none" points="275,650 625,650"/>
				<polyline fill="none" stroke="#000000" stroke-width="3" stroke-dasharray="none" points="300,625 300,750"/>
				<text x="462" y="665" fill="#000000" font-family="Arial" font-size="32pt" text-anchor="middle" direction="ltr">
					<tspan x="462" dy="50" unicode-bidi="embed">Real celsius</tspan>
				</text>
			</g>
			<g>
				<path fill="#FFFFFF" stroke="#000000" stroke-width="3" stroke-dasharray="none" d="M 175,825 L 100,975 L 725,975 L 800,825 Z"/>
				<text x="450" y="840" fill="#000000" font-family="Arial" font-size="32pt" text-anchor="middle" direction="ltr">
					<tspan x="450" dy="50" unicode-bidi="embed">Output &quot;Enter Fahrenheit</tspan>
					<tspan x="450" dy="50" unicode-bidi="embed"> temperature:&quot;</tspan>
				</text>
			</g>
			<g>
				<path fill="#FFFFFF" stroke="#000000" stroke-width="3" stroke-dasharray="none" d="M 250,1050 L 200,1150 L 650,1150 L 700,1050 Z"/>
				<text x="450" y="1065" fill="#000000" font-family="Arial" font-size="32pt" text-anchor="middle" direction="ltr">
					<tspan x="450" dy="50" unicode-bidi="embed">Input fahrenheit</tspan>
				</text>
			</g>
			<g>
				<path fill="#FFFFFF" stroke="#000000" stroke-width="3" stroke-dasharray="none" d="M 150,1225 L 150,1375 L 750,1375 L 750,1225 Z"/>
				<text x="450" y="1240" fill="#000000" font-family="Arial" font-size="32pt" text-anchor="middle" direction="ltr">
					<tspan x="450" dy="50" unicode-bidi="embed">celsius = (fahrenheit - 32) *</tspan>
					<tspan x="450" dy="50" unicode-bidi="embed"> 5 / 9</tspan>
				</text>
			</g>
			<g>
				<path fill="#FFFFFF" stroke="#000000" stroke-width="3" stroke-dasharray="none" d="M 125,1450 L 25,1650 L 775,1650 L 875,1450 Z"/>
				<text x="450" y="1465" fill="#000000" font-family="Arial" font-size="32pt" text-anchor="middle" direction="ltr">
					<tspan x="450" dy="50" unicode-bidi="embed">Output fahrenheit &amp; &quot;&#176;</tspan>
					<tspan x="450" dy="50" unicode-bidi="embed"> Fahrenheit is &quot; &amp; celsius &amp; &quot;&#176;</tspan>
					<tspan x="450" dy="50" unicode-bidi="embed"> Celsius&quot;</tspan>
				</text>
			</g>
		</g>
	</g>
</svg>
